<svg width="644" height="528" viewBox="0 0 644 528" fill="none" xmlns="http://www.w3.org/2000/svg">
<g clip-path="url(#clip0_4_2)">
<path d="M470.759 434.677C475.865 436.472 481.347 436.922 486.678 435.983C492.009 435.044 497.007 432.748 501.193 429.316C511.853 420.369 515.195 405.629 517.914 391.98L525.958 351.61L509.118 363.205C497.008 371.544 484.625 380.149 476.24 392.228C467.855 404.306 464.195 420.793 470.932 433.863" fill="url(#paint0_linear_4_2)"/>
<path d="M472.198 483.554C470.494 471.139 468.741 458.564 469.937 446.016C470.998 434.872 474.398 423.987 481.32 415.063C484.994 410.334 489.465 406.283 494.531 403.091C495.852 402.257 497.068 404.351 495.753 405.181C486.987 410.721 480.206 418.902 476.39 428.544C472.174 439.266 471.497 450.955 472.223 462.345C472.663 469.233 473.594 476.076 474.532 482.91C474.606 483.219 474.56 483.545 474.403 483.821C474.246 484.098 473.99 484.304 473.687 484.399C473.377 484.482 473.047 484.44 472.769 484.282C472.49 484.124 472.285 483.862 472.198 483.554V483.554Z" fill="black"/>
<path d="M488.615 461.585C490.805 464.913 493.815 467.622 497.356 469.449C500.896 471.277 504.848 472.161 508.83 472.018C519.063 471.533 527.594 464.39 535.274 457.61L557.988 437.554L542.955 436.835C532.144 436.317 521.054 435.835 510.756 439.169C500.459 442.503 490.962 450.527 489.079 461.185" fill="url(#paint1_linear_4_2)"/>
<path d="M467.381 490.69C475.585 476.175 485.1 460.042 502.103 454.886C506.83 453.457 511.788 452.945 516.707 453.378C518.258 453.511 517.871 455.902 516.323 455.768C508.076 455.083 499.846 457.261 493.016 461.934C486.445 466.407 481.328 472.626 476.998 479.221C474.345 483.26 471.969 487.471 469.592 491.676C468.833 493.02 466.613 492.05 467.381 490.69V490.69Z" fill="#020000"/>
<path d="M265.188 388.714C255.124 392.252 244.319 393.138 233.813 391.287C223.307 389.436 213.455 384.911 205.206 378.148C184.197 360.514 177.61 331.464 172.25 304.564C166.966 278.043 161.682 251.521 156.398 225L189.587 247.853C213.454 264.287 237.859 281.248 254.385 305.052C270.911 328.856 278.124 361.351 264.846 387.109" fill="url(#paint2_linear_4_2)"/>
<path d="M262.351 485.043C265.71 460.574 269.164 435.792 266.808 411.061C264.715 389.098 258.014 367.646 244.373 350.057C237.132 340.738 228.321 332.754 218.336 326.463C215.732 324.819 213.336 328.946 215.928 330.582C233.205 341.501 246.567 357.624 254.09 376.627C262.398 397.759 263.732 420.795 262.301 443.243C261.435 456.819 259.6 470.305 257.751 483.774C257.605 484.384 257.696 485.025 258.005 485.57C258.314 486.115 258.819 486.522 259.417 486.709C260.027 486.873 260.677 486.79 261.226 486.478C261.775 486.166 262.179 485.651 262.351 485.043V485.043Z" fill="black"/>
<path d="M229.996 441.745C225.68 448.305 219.747 453.643 212.769 457.245C205.791 460.846 198.003 462.59 190.155 462.308C169.987 461.351 153.173 447.275 138.038 433.911L93.2701 394.385L122.899 392.967C144.206 391.947 166.063 390.996 186.358 397.567C206.652 404.137 225.369 419.951 229.08 440.957" fill="url(#paint3_linear_4_2)"/>
<path d="M271.844 499.108C255.676 470.5 236.922 438.705 203.412 428.542C194.095 425.726 184.325 424.718 174.629 425.571C171.573 425.834 172.336 430.545 175.387 430.282C191.64 428.932 207.861 433.224 221.32 442.434C234.272 451.25 244.356 463.506 252.891 476.503C258.119 484.464 262.802 492.763 267.486 501.051C268.983 503.7 273.358 501.788 271.844 499.108V499.108Z" fill="black"/>
<path d="M147.053 111.794L7.84518 82.6282L6.0361 82.2501C5.11479 82.0557 4.1573 82.1253 3.27377 82.4509C2.39024 82.7764 1.61654 83.3447 1.04165 84.0905C0.466761 84.8362 0.114033 85.729 0.0240133 86.6663C-0.0660066 87.6036 0.110354 88.5473 0.532802 89.3888L56.3992 201.161C56.7607 201.879 57.2895 202.499 57.9409 202.97C58.5924 203.442 59.3475 203.749 60.1428 203.868C60.9405 203.987 61.7552 203.91 62.5166 203.644C63.278 203.378 63.9632 202.93 64.5129 202.34L102.614 161.685C102.885 161.388 103.214 161.151 103.581 160.988C103.949 160.825 104.345 160.74 104.747 160.738C105.293 160.727 105.832 160.865 106.305 161.137C106.779 161.408 107.17 161.804 107.436 162.28L115.376 176.76C115.883 177.725 116.698 178.493 117.692 178.942C118.686 179.39 119.802 179.493 120.862 179.234L120.901 179.225C121.973 178.992 122.936 178.404 123.634 177.557C124.332 176.71 124.725 175.653 124.75 174.555L126.124 141.015C126.14 140.596 126.242 140.186 126.424 139.808C126.619 139.435 126.885 139.102 127.206 138.83L149.218 120.542C149.941 119.94 150.481 119.148 150.775 118.254C151.068 117.36 151.104 116.402 150.878 115.489C150.652 114.576 150.174 113.745 149.497 113.091C148.821 112.438 147.974 111.988 147.053 111.794V111.794ZM147.946 119.006L125.934 137.294C125.647 137.528 125.388 137.793 125.16 138.085L7.6116 85.6143C7.50791 85.5668 7.3998 85.5296 7.28884 85.5032C6.83598 85.3894 6.35756 85.4374 5.93634 85.6389C5.51511 85.8405 5.17758 86.1829 4.98208 86.607C4.78658 87.031 4.74542 87.5101 4.86572 87.9613C4.98602 88.4125 5.26022 88.8074 5.6409 89.0779L102.453 159.312C101.965 159.569 101.526 159.908 101.153 160.315L63.0529 200.97C62.7223 201.322 62.3116 201.589 61.8556 201.748C61.3997 201.907 60.9121 201.954 60.4341 201.885C59.9562 201.815 59.5021 201.632 59.1104 201.349C58.7187 201.067 58.401 200.694 58.1843 200.262L2.31802 88.4904C2.06824 87.9854 1.96533 87.4204 2.02102 86.8597C2.07671 86.299 2.28878 85.7653 2.63302 85.3193C2.97727 84.8732 3.43985 84.5329 3.96811 84.3369C4.49636 84.141 5.06904 84.0974 5.62088 84.211L7.4729 84.5997L146.638 113.755C147.19 113.871 147.699 114.14 148.106 114.532C148.512 114.924 148.8 115.423 148.937 115.97C149.073 116.518 149.052 117.094 148.877 117.63C148.702 118.167 148.379 118.644 147.946 119.005L147.946 119.006Z" fill="url(#paint4_linear_4_2)"/>
<path d="M427.84 278.02L432.92 327.69L433.02 328.71L434.53 343.44L446.93 464.72V464.74L449.34 488.27C448.399 489.534 447.566 490.876 446.85 492.28C444.666 496.591 443.598 501.381 443.744 506.212C443.891 511.043 445.248 515.76 447.69 519.93C453.74 518.41 459.706 516.677 465.59 514.73C477.761 510.727 489.631 505.861 501.11 500.17C499.916 493.601 496.485 487.647 491.4 483.32L478.95 333.73L477.86 320.61L474.31 278.02H427.84Z" fill="#FFB8B8"/>
<path d="M463.446 142.737C489.122 117.061 489.122 75.4322 463.446 49.7562C437.77 24.0802 396.141 24.0803 370.465 49.7562C344.789 75.4322 344.789 117.061 370.465 142.737C396.141 168.413 437.77 168.413 463.446 142.737Z" fill="#FFB8B8"/>
<path d="M294.41 367.61C294.42 367.74 294.43 367.87 294.44 367.99C294.658 370.555 295.691 372.983 297.388 374.919C299.085 376.854 301.356 378.197 303.87 378.75L401.99 400.18C402.841 400.366 403.709 400.46 404.58 400.46C407.212 400.459 409.771 399.595 411.864 398C413.958 396.405 415.47 394.167 416.17 391.63C416.38 390.85 416.61 390.05 416.86 389.22V389.21C420.17 377.97 426.08 362.67 434.53 343.44C436.44 339.09 438.483 334.533 440.66 329.77C441.06 328.89 441.47 328 441.87 327.11C446.36 317.36 451.37 306.807 456.9 295.45C459.606 289.899 461.65 284.049 462.99 278.02C466.552 262.105 465.145 245.48 458.96 230.39C457.7 227.318 456.247 224.329 454.61 221.44C448.152 210.055 439.001 200.427 427.958 193.399C416.916 186.372 404.319 182.159 391.27 181.13C389.2 180.96 387.14 180.88 385.07 180.88C364.365 180.971 344.492 189.036 329.58 203.4C320.78 211.932 314.099 222.404 310.07 233.98C309.81 234.71 309.57 235.45 309.33 236.19C305.636 247.902 302.67 259.831 300.45 271.91C299.12 279.08 298.04 286.15 297.17 293.04C294.12 317.772 293.197 342.72 294.41 367.61V367.61Z" fill="#06B6D4"/>
<path d="M251.2 493.25C310.811 527.132 381.202 536.69 447.69 519.93C453.74 518.41 459.706 516.677 465.59 514.73C460.37 497.71 454.139 481.017 446.93 464.74V464.72C434.91 437.77 423.87 421.28 418.49 414C417.605 412.794 417.023 411.394 416.792 409.917C416.56 408.44 416.686 406.929 417.16 405.51L418.83 400.5C419.466 398.604 419.618 396.58 419.274 394.61C418.93 392.641 418.1 390.788 416.86 389.22V389.21C416.75 389.07 416.63 388.93 416.51 388.79C372.8 338.99 296.6 366.16 295.83 366.44L295.45 366.58L295.21 366.91C294.95 367.27 294.69 367.62 294.44 367.99C273.78 396.94 260.05 441.44 251.2 493.25Z" fill="black"/>
<path d="M161.354 172.619C161.683 174.064 161.897 175.532 161.995 177.01L276.988 243.349L304.938 227.258L334.735 266.267L288.022 299.561C284.249 302.25 279.704 303.643 275.071 303.53C270.438 303.418 265.967 301.805 262.329 298.935L143.752 205.388C138.4 207.369 132.573 207.674 127.044 206.262C121.515 204.85 116.547 201.788 112.801 197.484C109.055 193.179 106.708 187.837 106.072 182.166C105.436 176.495 106.542 170.765 109.243 165.739C111.943 160.712 116.11 156.626 121.189 154.025C126.268 151.424 132.018 150.431 137.675 151.178C143.332 151.925 148.628 154.376 152.858 158.207C157.088 162.037 160.051 167.064 161.354 172.619V172.619Z" fill="#FFB8B8"/>
<path d="M278.75 242.33V242.34C279.167 243.846 279.873 245.255 280.83 246.49L300.45 271.91L309.8 284.04L318 294.66C319.057 296.031 320.397 297.157 321.929 297.963C323.46 298.769 325.148 299.235 326.876 299.33C328.604 299.425 330.332 299.146 331.943 298.513C333.554 297.88 335.009 296.907 336.21 295.66L365.99 264.74L378.28 251.97C385.263 246.521 389.8 238.526 390.897 229.737C391.993 220.947 389.56 212.082 384.129 205.085C378.699 198.087 370.716 193.529 361.93 192.409C353.143 191.289 344.272 193.699 337.26 199.11L329.58 203.4L284.49 228.62C282.141 229.937 280.299 232.002 279.259 234.487C278.219 236.971 278.04 239.732 278.75 242.33H278.75Z" fill="#06B6D4"/>
<path d="M408.81 258.27L410.69 318.32L410.7 318.7C410.753 320.431 411.179 322.13 411.948 323.681C412.718 325.233 413.813 326.6 415.159 327.689C416.505 328.779 418.07 329.566 419.748 329.995C421.425 330.425 423.176 330.488 424.88 330.18L433.02 328.71L435.1 328.33H435.11L441.87 327.11L477.86 320.61L484.75 319.37C486.453 319.06 488.069 318.388 489.488 317.398C490.908 316.409 492.098 315.125 492.977 313.635C493.857 312.144 494.405 310.482 494.585 308.761C494.765 307.04 494.572 305.3 494.02 303.66L474.61 246.19C472.987 237.484 467.978 229.778 460.682 224.76C453.385 219.741 444.396 217.821 435.686 219.42C426.976 221.019 419.256 226.007 414.218 233.29C409.18 240.572 407.235 249.556 408.81 258.27V258.27Z" fill="#06B6D4"/>
<path d="M406.549 81.124C389.651 92.6896 367.463 104.578 350.203 92.2619C338.871 84.1748 335.3 69.1992 339.896 56.0572C348.16 32.424 370.866 22.0196 392.579 14.0443C420.805 3.67656 451.539 -4.57147 480.678 2.85342C509.818 10.2783 535.57 38.4908 530.31 68.0973C526.08 91.9063 503.621 111.717 506.809 135.688C510.018 159.813 537.149 172.511 561.101 176.823C585.053 181.134 611.856 182.52 629.069 199.724C651.028 221.672 645.545 260.9 624.882 284.072C604.22 307.244 573.039 317.748 542.825 324.888C502.793 334.349 459.496 339.321 421.476 323.62C383.455 307.919 353.869 265.654 364.882 226.021C369.535 209.28 380.494 195.132 391.085 181.358C401.677 167.584 412.402 153.181 416.442 136.282C419.809 122.2 417.317 105.849 407.978 95.2859C406.28 93.4369 405.211 91.0973 404.925 88.6029C404.639 86.1084 405.151 83.5876 406.387 81.4023L406.549 81.124Z" fill="url(#paint5_linear_4_2)"/>
</g>
<defs>
<linearGradient id="paint0_linear_4_2" x1="496.696" y1="351.61" x2="496.696" y2="436.461" gradientUnits="userSpaceOnUse">
<stop/>
<stop offset="1" stop-color="#06B6D4"/>
</linearGradient>
<linearGradient id="paint1_linear_4_2" x1="523.302" y1="436.466" x2="523.302" y2="472.033" gradientUnits="userSpaceOnUse">
<stop stop-color="#06B6D4"/>
<stop offset="1"/>
</linearGradient>
<linearGradient id="paint2_linear_4_2" x1="214.069" y1="225" x2="214.069" y2="392.229" gradientUnits="userSpaceOnUse">
<stop/>
<stop offset="1" stop-color="#06B6D4"/>
</linearGradient>
<linearGradient id="paint3_linear_4_2" x1="161.633" y1="392.24" x2="161.633" y2="462.338" gradientUnits="userSpaceOnUse">
<stop/>
<stop offset="1" stop-color="#06B6D4"/>
</linearGradient>
<linearGradient id="paint4_linear_4_2" x1="75.513" y1="82.1423" x2="75.513" y2="203.922" gradientUnits="userSpaceOnUse">
<stop stop-color="#06B6D4"/>
<stop offset="0.601073"/>
</linearGradient>
<linearGradient id="paint5_linear_4_2" x1="490.555" y1="0" x2="490.555" y2="333.74" gradientUnits="userSpaceOnUse">
<stop/>
<stop offset="1" stop-color="#06B6D4"/>
</linearGradient>
<clipPath id="clip0_4_2">
<rect width="643.162" height="528" fill="white"/>
</clipPath>
</defs>
</svg>
